<?xml version="1.0" standalone="no"?>
<!DOCTYPE svg PUBLIC "-//W3C//DTD SVG 20010904//EN"
 "http://www.w3.org/TR/2001/REC-SVG-20010904/DTD/svg10.dtd">
<svg version="1.0" xmlns="http://www.w3.org/2000/svg"
 width="313.000000pt" height="313.000000pt" viewBox="0 0 313.000000 313.000000"
 preserveAspectRatio="xMidYMid meet">
<metadata>
Created by potrace 1.14, written by Peter Selinger 2001-2017
</metadata>
<g transform="translate(0.000000,313.000000) scale(0.100000,-0.100000)"
fill="#000000" stroke="none">
<path d="M0 1565 l0 -1565 171 0 172 0 -6 28 c-3 16 -9 74 -13 129 -7 99 -6
101 17 114 13 7 29 18 34 25 11 14 82 72 115 94 12 8 28 20 34 26 6 6 16 13
21 15 56 22 176 152 152 163 -6 3 -2 3 11 0 17 -4 35 7 80 48 105 98 226 204
277 243 91 69 86 43 80 435 -9 515 -22 780 -41 801 -21 23 -149 109 -163 109
-6 0 -11 -13 -11 -30 0 -16 -5 -30 -11 -30 -8 0 -10 14 -6 44 l6 45 -67 50
c-69 51 -152 132 -152 147 0 5 -17 22 -37 38 l-37 30 30 13 29 14 -33 -5 c-28
-5 -37 0 -66 31 -33 36 -33 38 -15 51 26 18 24 50 -3 54 -21 4 -19 6 12 21
l35 16 -30 -1 c-16 0 -38 3 -48 7 -11 4 -23 3 -30 -4 -35 -35 -62 5 -74 109
-3 25 -7 47 -9 49 -2 2 -18 4 -35 4 -25 0 -29 3 -17 11 8 6 15 15 16 19 1 19
11 17 17 -2 7 -24 10 -24 83 -21 42 1 56 -2 67 -16 10 -14 27 -19 62 -20 27 0
54 -4 61 -8 13 -8 72 50 72 70 0 9 -12 14 -34 14 -51 0 -126 12 -126 20 0 4
23 10 50 13 28 3 55 9 60 12 18 11 10 46 -12 55 -18 7 -12 9 30 9 38 1 52 5
52 15 0 16 34 31 50 21 6 -4 7 -11 4 -17 -5 -7 -2 -8 5 -3 7 4 11 15 8 25 -2
9 0 25 5 34 8 14 1 16 -59 16 -59 -1 -66 -2 -50 -14 9 -7 17 -15 17 -17 0 -7
-373 -1 -407 7 -18 3 -33 10 -33 15 0 13 -147 11 -194 -2 -27 -8 -41 -8 -49 0
-6 6 -24 11 -39 11 l-28 0 0 -1565z m360 1280 c-6 -8 -8 -20 -4 -27 6 -10 3
-9 -9 1 -24 19 -21 41 4 41 18 0 19 -3 9 -15z m5 -274 c-18 -7 -55 -4 -55 5 0
2 17 4 38 3 28 0 32 -2 17 -8z m-156 -147 c2 -2 2 -7 -1 -10 -4 -3 -19 2 -35
10 l-28 16 30 -6 c17 -4 32 -8 34 -10z m101 -65 c0 -4 -16 1 -35 10 -19 9 -34
22 -35 29 0 8 12 4 35 -10 19 -13 35 -26 35 -29z m36 -24 c9 -8 24 -15 35 -15
11 0 17 -4 14 -10 -7 -11 -59 12 -70 30 -9 15 4 12 21 -5z m244 -37 c0 -7 7
-101 15 -208 8 -107 17 -233 19 -280 5 -84 5 -84 -9 25 -8 61 -19 177 -24 259
-6 82 -14 165 -17 183 -4 21 -2 33 5 33 6 0 11 -6 11 -12z m400 -128 c0 -5 -4
-10 -10 -10 -5 0 -10 5 -10 10 0 6 5 10 10 10 6 0 10 -4 10 -10z m-40 -31 c0
-11 -4 -17 -10 -14 -5 3 -10 13 -10 21 0 8 5 14 10 14 6 0 10 -9 10 -21z m32
-94 c-8 -42 -22 -39 -20 4 1 30 4 38 13 31 7 -6 10 -21 7 -35z m52 0 c11 -8
16 -15 10 -15 -5 0 -18 7 -28 15 -11 8 -16 15 -10 15 5 0 18 -7 28 -15z m76
-35 c0 -5 -2 -10 -4 -10 -3 0 -8 5 -11 10 -3 6 -1 10 4 10 6 0 11 -4 11 -10z
m-95 -46 c14 -14 25 -31 25 -39 0 -20 -42 -6 -48 17 -3 14 -7 16 -18 7 -16
-13 -15 -14 -20 24 -2 24 0 27 17 22 11 -4 31 -18 44 -31z m-147 -111 c-5 -25
-25 -27 -38 -4 -10 19 -8 21 15 21 19 0 26 -5 23 -17z m62 -45 c0 -9 -34 -11
-42 -2 -3 3 -4 13 -1 24 5 17 6 17 24 2 10 -9 19 -20 19 -24z m55 22 c-3 -5 1
-10 9 -10 9 0 16 -4 16 -10 0 -5 8 -10 18 -11 14 0 14 -2 -3 -9 -11 -4 -24 -4
-29 1 -14 13 -44 11 -49 -3 -3 -7 -6 -3 -6 9 -1 12 7 27 17 32 22 13 35 14 27
1z m99 -62 c-10 -16 -34 -7 -34 12 0 17 3 19 19 8 11 -7 17 -16 15 -20z m-219
13 c3 -5 1 -12 -5 -16 -5 -3 -10 1 -10 9 0 18 6 21 15 7z m80 -31 c-3 -4 -15
-6 -27 -2 -21 5 -21 6 -2 12 21 8 37 3 29 -10z m45 -8 c0 -13 -12 -22 -22 -16
-10 6 -1 24 13 24 5 0 9 -4 9 -8z m40 -12 c0 -5 -4 -10 -10 -10 -5 0 -10 5
-10 10 0 6 5 10 10 10 6 0 10 -4 10 -10z m-106 -35 c11 -8 14 -16 8 -16 -35
-4 -42 -3 -42 4 0 4 0 12 0 17 0 14 11 12 34 -5z m126 1 c0 -11 -19 -15 -25
-6 -3 5 1 10 9 10 9 0 16 -2 16 -4z m-85 -16 c3 -5 1 -10 -4 -10 -6 0 -11 5
-11 10 0 6 2 10 4 10 3 0 8 -4 11 -10z m94 -89 c11 -7 9 -10 -8 -16 -25 -8
-36 -2 -26 14 8 13 15 14 34 2z m-562 -23 c-3 -8 -6 -5 -6 6 -1 11 2 17 5 13
3 -3 4 -12 1 -19z m423 13 c0 -5 -7 -11 -15 -15 -15 -5 -20 5 -8 17 9 10 23 9
23 -2z m-78 -16 c0 -5 -5 -11 -11 -13 -6 -2 -11 4 -11 13 0 9 5 15 11 13 6 -2
11 -8 11 -13z m-5 -72 c-3 -10 -5 -4 -5 12 0 17 2 24 5 18 2 -7 2 -21 0 -30z
m133 -9 c0 -8 -4 -12 -10 -9 -5 3 -10 13 -10 21 0 8 5 12 10 9 6 -3 10 -13 10
-21z m70 -9 c0 -8 9 -15 20 -15 11 0 20 -5 20 -11 0 -6 -12 -9 -27 -7 -20 2
-29 9 -31 26 -2 12 1 22 7 22 6 0 11 -7 11 -15z m-60 -90 c0 -5 -5 -3 -10 5
-5 8 -10 20 -10 25 0 6 5 3 10 -5 5 -8 10 -19 10 -25z m-100 -1 c0 -8 -5 -12
-10 -9 -6 4 -8 11 -5 16 9 14 15 11 15 -7z m-6 -89 c3 -8 3 -15 0 -15 -3 0
-12 7 -20 15 -13 13 -13 15 -1 15 8 0 17 -7 21 -15z m158 -11 c11 -7 10 -34
-1 -34 -5 0 -12 6 -14 13 -3 6 -6 -8 -6 -33 -2 -56 -8 -67 -46 -74 l-30 -6 28
11 c27 10 28 14 25 67 -3 56 -3 57 -38 64 -22 4 -15 5 19 2 30 -3 58 -7 63
-10z m-189 -44 c22 0 22 -1 -2 -19 -13 -10 -21 -23 -17 -29 3 -6 2 -13 -4 -17
-6 -4 -10 13 -9 47 1 29 3 45 6 36 2 -10 14 -18 26 -18z m-327 -138 c3 -17 0
-33 -6 -37 -5 -3 -10 0 -10 8 0 8 -7 20 -15 27 -8 7 -15 17 -15 22 0 6 7 5 15
-2 12 -10 15 -9 15 5 0 27 11 11 16 -23z m14 -201 c0 -12 -59 -55 -66 -49 -6
6 46 58 57 58 5 0 9 -4 9 -9z m-80 -91 c0 -10 -8 -24 -17 -29 -13 -8 -14 -10
-4 -11 8 0 12 -2 9 -5 -3 -3 -12 -3 -21 1 -15 5 -15 9 -1 35 17 33 34 38 34 9z
m-92 -115 c-13 -30 -28 -33 -28 -6 0 11 8 22 18 24 9 3 18 5 19 6 2 0 -3 -10
-9 -24z m189 -183 c-9 -11 -12 -10 -19 7 -4 12 -5 28 -1 37 5 14 8 12 19 -7 9
-18 9 -27 1 -37z"/>
<path d="M1660 3120 c-15 -10 -52 -22 -237 -80 l-102 -32 3 -81 c2 -45 6 -257
10 -472 12 -713 33 -1443 42 -1457 6 -9 46 -11 68 -2 9 3 16 15 16 27 0 34 13
10 17 -32 2 -22 -1 -42 -7 -46 -5 -3 -10 1 -10 11 0 21 -164 -144 -274 -276
-44 -52 -82 -97 -85 -100 -21 -19 -63 -72 -52 -65 10 6 11 2 6 -15 -6 -20 -3
-19 38 11 24 19 68 64 97 102 30 37 57 67 60 67 4 0 27 17 51 39 24 21 64 48
88 60 l44 23 -6 -24 c-4 -12 -7 -26 -7 -29 0 -4 -14 -9 -30 -13 -21 -4 -34
-14 -41 -33 -6 -15 -13 -30 -17 -33 -16 -12 -32 -50 -21 -50 6 0 9 -6 6 -14
-3 -8 1 -20 9 -27 12 -10 11 -14 -8 -24 -13 -6 -28 -8 -34 -4 -5 5 -23 5 -40
0 -21 -5 -29 -14 -29 -30 0 -12 -7 -26 -15 -31 -10 -7 -11 -10 -2 -10 6 0 12
-5 12 -10 0 -6 -5 -9 -11 -8 -6 2 -14 -3 -17 -11 -3 -10 1 -13 17 -8 18 4 21
1 21 -30 0 -21 -7 -42 -18 -51 -10 -10 -11 -12 -3 -7 28 19 -21 -50 -93 -129
-38 -42 -75 -76 -82 -76 -8 0 -14 -7 -14 -15 0 -9 -8 -19 -17 -22 -20 -8 -52
-43 -53 -57 0 -6 -10 -20 -22 -33 l-21 -23 711 0 711 0 -29 50 c-33 57 -34 60
-19 60 5 0 8 -4 5 -9 -7 -11 20 -34 35 -29 8 3 5 10 -7 23 -13 13 -15 20 -6
23 7 2 10 7 7 12 -2 4 7 20 20 34 14 15 26 39 27 54 2 41 6 43 45 17 39 -27
53 -31 53 -15 0 6 -4 10 -9 10 -4 0 -25 16 -45 35 -31 29 -35 38 -26 54 6 12
16 18 25 15 8 -4 15 -1 15 5 0 19 79 5 111 -18 16 -12 32 -21 38 -21 5 0 11
-6 14 -14 3 -7 19 -16 36 -19 34 -7 52 -34 31 -47 -8 -5 -3 -12 18 -21 16 -7
38 -25 48 -41 11 -16 29 -31 42 -34 12 -4 25 -16 28 -28 3 -11 28 -38 55 -58
l49 -38 125 0 125 0 0 1565 0 1565 -727 0 c-453 0 -734 -4 -743 -10z m1325
-340 c3 -5 -1 -10 -10 -10 -9 0 -13 5 -10 10 3 6 8 10 10 10 2 0 7 -4 10 -10z
m-285 -287 c0 -51 8 -60 53 -61 40 -1 76 27 87 68 3 13 9 17 18 12 9 -6 8 -13
-6 -28 -29 -31 -32 -50 -11 -72 12 -14 15 -23 8 -27 -6 -4 -13 -4 -16 -1 -9 9
-43 -35 -43 -55 0 -20 -13 -25 -91 -34 -40 -5 -59 -3 -64 5 -6 10 -1 12 18 8
14 -3 32 -1 39 3 10 7 8 9 -6 9 -15 0 -17 5 -11 23 14 43 17 97 6 97 -12 0
-16 72 -4 83 15 16 23 5 23 -30z m217 31 c-3 -3 -12 -4 -19 -1 -8 3 -5 6 6 6
11 1 17 -2 13 -5z m-249 -108 c5 -25 -16 -45 -27 -27 -11 17 -2 53 13 48 6 -2
13 -12 14 -21z m182 14 c0 -5 -2 -10 -4 -10 -3 0 -8 5 -11 10 -3 6 -1 10 4 10
6 0 11 -4 11 -10z m-340 -159 c0 -12 -20 -25 -27 -18 -7 7 6 27 18 27 5 0 9
-4 9 -9z m-67 -88 c2 -35 0 -63 -5 -63 -4 0 -7 35 -7 78 1 85 6 80 12 -15z
m106 15 c-1 -18 1 -48 5 -67 6 -23 4 -36 -4 -41 -7 -4 -10 -15 -7 -25 4 -9 11
-13 17 -10 6 4 10 -6 10 -23 0 -18 6 -32 16 -36 11 -4 14 -17 12 -48 l-3 -43
-244 -17 c-134 -9 -248 -21 -252 -25 -8 -8 -22 -274 -22 -408 0 -38 3 -124 6
-190 5 -92 4 -111 -4 -80 -6 22 -12 181 -13 353 -2 172 -6 315 -9 319 -4 3
-14 0 -23 -7 -11 -10 -17 -11 -23 -2 -5 8 -17 9 -41 3 -19 -5 -61 -12 -92 -16
-57 -6 -58 -6 -58 19 0 14 3 27 8 30 4 2 50 6 102 8 59 2 99 8 105 15 6 7 26
14 45 17 19 2 55 7 80 10 25 4 79 11 120 17 156 21 140 13 140 73 0 51 1 53
25 48 22 -4 25 -1 25 26 0 37 19 52 32 27 8 -14 12 -15 19 -4 14 23 11 59 -6
59 -18 0 -20 21 -3 38 23 23 39 14 37 -20z m-153 -1168 l61 0 -15 -55 c-17
-62 -9 -59 -136 -48 l-77 6 7 31 c16 72 21 79 62 72 20 -3 65 -6 98 -6z m-466
-55 c0 -12 13 -19 60 -30 3 -1 13 -5 23 -9 9 -5 26 -6 38 -3 16 4 18 3 9 -8
-16 -20 -70 -26 -107 -13 -30 11 -35 10 -49 -10 -11 -16 -24 -22 -47 -21 -30
2 -31 2 -4 6 29 5 52 36 43 59 -6 15 12 43 27 44 4 0 7 -7 7 -15z m250 -59 c0
-25 -30 -46 -55 -40 -12 3 -26 1 -29 -5 -5 -7 5 -11 28 -11 19 0 37 -6 39 -12
4 -10 8 -9 16 2 9 12 11 11 11 -7 0 -13 -4 -23 -10 -23 -22 0 -116 23 -123 30
-16 15 13 50 41 50 15 1 38 7 52 15 31 18 30 18 30 1z m433 2 c56 1 89 -12 81
-31 -2 -6 -20 -23 -39 -36 -19 -13 -41 -36 -49 -52 -8 -16 -11 -27 -7 -24 5 2
1 -11 -8 -30 -9 -19 -22 -34 -30 -35 -12 0 -11 -3 2 -12 14 -11 15 -19 6 -50
-13 -48 -23 -50 -15 -3 4 20 3 35 -2 35 -6 0 -13 -26 -17 -57 -5 -46 -13 -65
-38 -91 -17 -17 -34 -32 -39 -32 -4 0 -28 21 -54 46 -26 25 -63 57 -81 71 -18
14 -33 30 -33 35 0 7 5 6 13 -1 8 -6 17 -8 21 -4 4 4 -4 12 -16 19 -26 14 -26
14 59 34 29 6 57 9 62 6 5 -4 12 -2 16 4 3 5 -2 10 -12 11 -10 0 -3 6 17 14
35 14 35 14 -25 10 -41 -4 -80 1 -125 14 -36 10 -81 23 -100 29 l-35 10 35 1
c19 0 71 -6 114 -14 44 -8 83 -12 88 -9 5 3 15 20 23 37 l15 32 -3 -37 c-2
-24 2 -39 10 -42 7 -3 13 1 13 8 0 8 10 21 23 30 l22 16 -25 -2 c-22 -3 -25 1
-26 34 -1 23 4 42 14 50 14 11 15 10 8 -7 -6 -16 -2 -15 21 7 18 19 34 26 46
22 10 -3 42 -6 70 -6z m-576 -102 c11 3 24 1 27 -5 5 -7 -8 -11 -38 -11 -49 0
-49 0 -39 26 6 15 7 15 18 1 7 -10 20 -14 32 -11z m140 -92 c-3 -3 -12 -4 -19
-1 -8 3 -5 6 6 6 11 1 17 -2 13 -5z m146 -11 c-7 -2 -19 -2 -25 0 -7 3 -2 5
12 5 14 0 19 -2 13 -5z m-576 -45 c6 -7 8 -30 6 -50 -5 -37 -6 -38 -47 -38
-23 0 -51 7 -62 15 -12 8 -24 11 -28 8 -3 -3 -6 5 -6 19 0 14 7 32 17 39 15
13 15 12 5 -8 -15 -27 -15 -36 -2 -28 6 3 10 1 10 -4 0 -6 5 -11 10 -11 6 0
10 11 10 25 0 22 3 25 25 19 19 -5 25 -2 25 10 0 19 23 21 37 4z m659 -140
c34 -38 42 -58 25 -58 -5 0 -13 -9 -16 -20 -3 -11 -16 -25 -27 -31 -19 -10
-25 -7 -50 22 -16 19 -37 52 -48 74 -17 34 -18 40 -5 47 11 7 12 15 5 34 -6
14 -10 28 -10 30 0 11 94 -63 126 -98z m-326 31 c0 -11 -4 -17 -10 -14 -5 3
-10 13 -10 21 0 8 5 14 10 14 6 0 10 -9 10 -21z m166 -34 c8 -19 19 -35 25
-35 6 0 8 -8 4 -18 -3 -13 5 -31 25 -53 16 -19 28 -38 27 -44 -6 -17 -47 -18
-47 -2 0 8 -12 28 -27 43 -16 16 -24 26 -18 22 13 -11 35 -10 35 2 0 6 -8 13
-17 17 -22 8 -43 29 -68 67 -19 28 -19 29 2 22 12 -4 24 -2 28 4 10 16 15 12
31 -25z m-102 -69 c-8 -62 -11 -67 -19 -30 -4 16 -15 46 -26 67 l-20 37 21 0
c14 0 19 4 15 13 -4 6 3 1 14 -12 18 -20 20 -31 15 -75z m-1044 80 c0 -2 -7
-7 -16 -10 -8 -3 -12 -2 -9 4 6 10 25 14 25 6z m783 -66 c-3 -12 -8 -19 -11
-16 -5 6 5 36 12 36 2 0 2 -9 -1 -20z m175 -5 c-3 -3 -9 2 -12 12 -6 14 -5 15
5 6 7 -7 10 -15 7 -18z m904 -3 c10 -8 25 -12 35 -8 15 6 14 3 -3 -15 -25 -24
-34 -21 -64 21 -19 27 -19 29 -3 23 10 -3 26 -13 35 -21z m-1677 8 c-3 -5 -11
-10 -16 -10 -6 0 -7 5 -4 10 3 6 11 10 16 10 6 0 7 -4 4 -10z m899 -92 c-6
-56 -17 -78 -32 -63 -3 3 0 10 8 15 11 7 11 10 2 10 -9 0 -8 8 4 32 11 21 14
44 10 72 -4 33 -3 36 5 17 5 -14 7 -50 3 -83z m881 42 c3 -5 -1 -10 -10 -10
-9 0 -13 5 -10 10 3 6 8 10 10 10 2 0 7 -4 10 -10z m-965 -89 c6 -23 6 -31 -2
-29 -7 3 -14 20 -16 39 -4 40 5 35 18 -10z m79 -68 c0 -34 -1 -36 -11 -16 -6
12 -8 29 -5 37 11 27 17 18 16 -21z"/>
<path d="M2510 2000 l-25 -8 27 -1 c15 -1 30 4 33 9 7 11 0 11 -35 0z"/>
<path d="M2438 1983 c6 -2 18 -2 25 0 6 3 1 5 -13 5 -14 0 -19 -2 -12 -5z"/>
<path d="M2095 1912 c-50 -6 -48 -18 3 -20 49 -2 82 5 82 16 0 8 -38 9 -85 4z"/>
<path d="M2530 886 c0 -2 11 -6 25 -8 13 -3 22 -1 19 3 -5 9 -44 13 -44 5z"/>
<path d="M2551 849 c-13 -5 -22 -11 -20 -13 8 -7 79 7 79 15 0 11 -28 11 -59
-2z"/>
<path d="M2498 753 c6 -2 18 -2 25 0 6 3 1 5 -13 5 -14 0 -19 -2 -12 -5z"/>
<path d="M1680 630 c0 -5 6 -10 14 -10 8 0 18 5 21 10 3 6 -3 10 -14 10 -12 0
-21 -4 -21 -10z"/>
<path d="M2215 510 c3 -5 8 -10 11 -10 2 0 4 5 4 10 0 6 -5 10 -11 10 -5 0 -7
-4 -4 -10z"/>
<path d="M1083 3034 c-20 -14 -20 -17 -5 -34 20 -24 31 -17 30 20 -1 17 -1 30
-2 29 -1 0 -11 -7 -23 -15z"/>
<path d="M1113 2960 c9 -6 17 -20 17 -30 0 -11 6 -20 13 -20 6 0 21 -7 31 -15
19 -14 18 -15 -13 -21 l-33 -7 7 -81 c3 -45 10 -153 15 -241 24 -432 34 -560
44 -567 16 -11 66 -10 66 2 0 6 7 10 15 10 8 0 15 -6 15 -12 0 -9 4 -8 11 2
10 14 8 224 -6 650 -7 186 -22 316 -38 318 -7 1 -32 3 -57 5 -25 3 -58 7 -75
11 -24 6 -27 5 -12 -4z"/>
<path d="M554 2764 c3 -9 6 -18 6 -20 0 -2 7 -4 15 -4 8 0 15 9 15 20 0 14 -7
20 -21 20 -15 0 -19 -4 -15 -16z"/>
<path d="M726 2745 c-19 -29 -21 -45 -5 -45 7 0 18 -8 25 -17 9 -13 16 -15 24
-7 9 9 9 22 0 53 -12 47 -21 51 -44 16z"/>
<path d="M731 2489 c-13 -5 -22 -11 -20 -13 7 -7 59 6 59 15 0 11 -8 11 -39
-2z"/>
<path d="M770 2401 c0 -5 5 -13 10 -16 6 -3 10 -2 10 4 0 5 -4 13 -10 16 -5 3
-10 2 -10 -4z"/>
<path d="M1290 1741 c0 -74 2 -132 5 -129 12 11 17 226 6 244 -8 14 -10 -14
-11 -115z"/>
<path d="M1291 1550 c1 -55 1 -55 11 -18 7 25 6 43 -1 55 -8 14 -10 6 -10 -37z"/>
<path d="M1304 1205 c0 -66 1 -92 3 -57 2 34 2 88 0 120 -2 31 -3 3 -3 -63z"/>
<path d="M1276 582 c-3 -6 -1 -14 5 -17 15 -10 25 3 12 16 -7 7 -13 7 -17 1z"/>
<path d="M932 380 c-11 -18 -10 -19 13 -8 26 12 34 28 12 28 -7 0 -18 -9 -25
-20z"/>
<path d="M815 258 c-22 -29 -63 -80 -92 -114 -58 -67 -68 -97 -30 -86 37 11
76 47 92 85 8 20 32 50 54 67 42 35 61 78 39 91 -20 13 -21 12 -63 -43z"/>
<path d="M2410 150 c0 -11 101 -75 119 -75 9 0 16 -5 16 -12 0 -6 3 -15 8 -19
4 -4 7 0 7 8 0 19 -26 42 -38 34 -5 -3 -18 7 -29 22 -20 26 -83 59 -83 42z"/>
<path d="M863 120 c-8 -12 -9 -21 -3 -25 6 -3 10 -1 10 6 0 6 8 18 18 25 14
11 14 13 2 14 -8 0 -21 -9 -27 -20z"/>
<path d="M2340 113 c1 -13 56 -70 81 -84 17 -9 24 -9 27 0 2 6 9 8 14 5 7 -4
8 -2 4 4 -4 7 -14 12 -23 12 -9 0 -36 16 -59 36 -24 19 -44 32 -44 27z"/>
<path d="M640 15 c0 -8 5 -15 10 -15 6 0 10 7 10 15 0 8 -4 15 -10 15 -5 0
-10 -7 -10 -15z"/>
</g>
</svg>
